<svg xmlns="http://www.w3.org/2000/svg" xmlns:xlink="http://www.w3.org/1999/xlink" width="473" zoomAndPan="magnify" viewBox="0 0 354.75 112.499997" height="150" preserveAspectRatio="xMidYMid meet" version="1.2"><defs><clipPath id="c5adbb61b3"><path d="M 0.660156 0 L 353.839844 0 L 353.839844 112.003906 L 0.660156 112.003906 Z M 0.660156 0 "/></clipPath><clipPath id="a6024dfdbc"><path d="M 0.660156 0 L 353.835938 0 L 353.835938 112.003906 L 0.660156 112.003906 Z M 0.660156 0 "/></clipPath><linearGradient x1="128.482243" gradientTransform="matrix(0.469295,0,0,0.469295,0.657238,-4.068671)" y1="-119.805751" x2="624.097124" gradientUnits="userSpaceOnUse" y2="375.809124" id="3e91de1159"><stop style="stop-color:#01ecff;stop-opacity:1;" offset="0"/><stop style="stop-color:#02eaff;stop-opacity:1;" offset="0.00390625"/><stop style="stop-color:#03e8ff;stop-opacity:1;" offset="0.0078125"/><stop style="stop-color:#03e6ff;stop-opacity:1;" offset="0.0117188"/><stop style="stop-color:#04e5ff;stop-opacity:1;" offset="0.015625"/><stop style="stop-color:#05e3ff;stop-opacity:1;" offset="0.0195312"/><stop style="stop-color:#05e1ff;stop-opacity:1;" offset="0.0234375"/><stop style="stop-color:#06dfff;stop-opacity:1;" offset="0.0273438"/><stop style="stop-color:#06ddff;stop-opacity:1;" offset="0.03125"/><stop style="stop-color:#07dbff;stop-opacity:1;" offset="0.0351562"/><stop style="stop-color:#08d9ff;stop-opacity:1;" offset="0.0390625"/><stop style="stop-color:#08d8ff;stop-opacity:1;" offset="0.0429688"/><stop style="stop-color:#09d6ff;stop-opacity:1;" offset="0.046875"/><stop style="stop-color:#0ad4ff;stop-opacity:1;" offset="0.0507813"/><stop style="stop-color:#0ad2ff;stop-opacity:1;" offset="0.0546875"/><stop style="stop-color:#0bd0ff;stop-opacity:1;" offset="0.0585938"/><stop style="stop-color:#0bceff;stop-opacity:1;" offset="0.0625"/><stop style="stop-color:#0ccdff;stop-opacity:1;" offset="0.0664063"/><stop style="stop-color:#0dcbff;stop-opacity:1;" offset="0.0703125"/><stop style="stop-color:#0dc9ff;stop-opacity:1;" offset="0.0742188"/><stop style="stop-color:#0ec7ff;stop-opacity:1;" offset="0.078125"/><stop style="stop-color:#0fc5ff;stop-opacity:1;" offset="0.0820313"/><stop style="stop-color:#0fc3ff;stop-opacity:1;" offset="0.0859375"/><stop style="stop-color:#10c1ff;stop-opacity:1;" offset="0.0898438"/><stop style="stop-color:#11c0ff;stop-opacity:1;" offset="0.09375"/><stop style="stop-color:#11beff;stop-opacity:1;" offset="0.0976563"/><stop style="stop-color:#12bcff;stop-opacity:1;" offset="0.101563"/><stop style="stop-color:#12baff;stop-opacity:1;" offset="0.105469"/><stop style="stop-color:#13b8ff;stop-opacity:1;" offset="0.109375"/><stop style="stop-color:#14b6ff;stop-opacity:1;" offset="0.113281"/><stop style="stop-color:#14b5ff;stop-opacity:1;" offset="0.117188"/><stop style="stop-color:#15b3ff;stop-opacity:1;" offset="0.121094"/><stop style="stop-color:#16b1ff;stop-opacity:1;" offset="0.125"/><stop style="stop-color:#16afff;stop-opacity:1;" offset="0.128906"/><stop style="stop-color:#17adff;stop-opacity:1;" offset="0.132812"/><stop style="stop-color:#17abff;stop-opacity:1;" offset="0.136719"/><stop style="stop-color:#18aaff;stop-opacity:1;" offset="0.140625"/><stop style="stop-color:#19a8ff;stop-opacity:1;" offset="0.144531"/><stop style="stop-color:#19a6ff;stop-opacity:1;" offset="0.148437"/><stop style="stop-color:#1aa4ff;stop-opacity:1;" offset="0.152344"/><stop style="stop-color:#1ba2ff;stop-opacity:1;" offset="0.15625"/><stop style="stop-color:#1ba0ff;stop-opacity:1;" offset="0.160156"/><stop style="stop-color:#1c9eff;stop-opacity:1;" offset="0.164062"/><stop style="stop-color:#1c9dff;stop-opacity:1;" offset="0.167969"/><stop style="stop-color:#1d9bff;stop-opacity:1;" offset="0.171875"/><stop style="stop-color:#1e99ff;stop-opacity:1;" offset="0.175781"/><stop style="stop-color:#1e97ff;stop-opacity:1;" offset="0.179687"/><stop style="stop-color:#1f95ff;stop-opacity:1;" offset="0.183594"/><stop style="stop-color:#2093ff;stop-opacity:1;" offset="0.1875"/><stop style="stop-color:#2092ff;stop-opacity:1;" offset="0.191406"/><stop style="stop-color:#2190ff;stop-opacity:1;" offset="0.195313"/><stop style="stop-color:#228eff;stop-opacity:1;" offset="0.199219"/><stop style="stop-color:#228cff;stop-opacity:1;" offset="0.203125"/><stop style="stop-color:#238aff;stop-opacity:1;" offset="0.207031"/><stop style="stop-color:#2388ff;stop-opacity:1;" offset="0.210938"/><stop style="stop-color:#2487ff;stop-opacity:1;" offset="0.214844"/><stop style="stop-color:#2585ff;stop-opacity:1;" offset="0.21875"/><stop style="stop-color:#2583ff;stop-opacity:1;" offset="0.222656"/><stop style="stop-color:#2681ff;stop-opacity:1;" offset="0.226562"/><stop style="stop-color:#277fff;stop-opacity:1;" offset="0.230469"/><stop style="stop-color:#277dff;stop-opacity:1;" offset="0.234375"/><stop style="stop-color:#287bff;stop-opacity:1;" offset="0.238281"/><stop style="stop-color:#287aff;stop-opacity:1;" offset="0.242188"/><stop style="stop-color:#2978ff;stop-opacity:1;" offset="0.246094"/><stop style="stop-color:#2a76ff;stop-opacity:1;" offset="0.25"/><stop style="stop-color:#2a74ff;stop-opacity:1;" offset="0.253906"/><stop style="stop-color:#2b72ff;stop-opacity:1;" offset="0.257812"/><stop style="stop-color:#2c70ff;stop-opacity:1;" offset="0.261719"/><stop style="stop-color:#2c6fff;stop-opacity:1;" offset="0.265625"/><stop style="stop-color:#2d6dff;stop-opacity:1;" offset="0.269531"/><stop style="stop-color:#2d6bff;stop-opacity:1;" offset="0.273438"/><stop style="stop-color:#2e69ff;stop-opacity:1;" offset="0.277344"/><stop style="stop-color:#2f67ff;stop-opacity:1;" offset="0.28125"/><stop style="stop-color:#2f65ff;stop-opacity:1;" offset="0.285156"/><stop style="stop-color:#3064ff;stop-opacity:1;" offset="0.289062"/><stop style="stop-color:#3162ff;stop-opacity:1;" offset="0.292969"/><stop style="stop-color:#3160ff;stop-opacity:1;" offset="0.296875"/><stop style="stop-color:#325eff;stop-opacity:1;" offset="0.300781"/><stop style="stop-color:#335cff;stop-opacity:1;" offset="0.304688"/><stop style="stop-color:#335aff;stop-opacity:1;" offset="0.308594"/><stop style="stop-color:#3458ff;stop-opacity:1;" offset="0.3125"/><stop style="stop-color:#3457ff;stop-opacity:1;" offset="0.316406"/><stop style="stop-color:#3555ff;stop-opacity:1;" offset="0.320312"/><stop style="stop-color:#3653ff;stop-opacity:1;" offset="0.324219"/><stop style="stop-color:#3651ff;stop-opacity:1;" offset="0.328125"/><stop style="stop-color:#374fff;stop-opacity:1;" offset="0.332031"/><stop style="stop-color:#384dff;stop-opacity:1;" offset="0.335938"/><stop style="stop-color:#384cff;stop-opacity:1;" offset="0.339844"/><stop style="stop-color:#394aff;stop-opacity:1;" offset="0.34375"/><stop style="stop-color:#3948ff;stop-opacity:1;" offset="0.347656"/><stop style="stop-color:#3a46ff;stop-opacity:1;" offset="0.351562"/><stop style="stop-color:#3b44ff;stop-opacity:1;" offset="0.355469"/><stop style="stop-color:#3b42ff;stop-opacity:1;" offset="0.359375"/><stop style="stop-color:#3c40ff;stop-opacity:1;" offset="0.363281"/><stop style="stop-color:#3d3fff;stop-opacity:1;" offset="0.367188"/><stop style="stop-color:#3d3dff;stop-opacity:1;" offset="0.371094"/><stop style="stop-color:#3e3bff;stop-opacity:1;" offset="0.375"/><stop style="stop-color:#3e39ff;stop-opacity:1;" offset="0.378906"/><stop style="stop-color:#3f37ff;stop-opacity:1;" offset="0.382813"/><stop style="stop-color:#4035ff;stop-opacity:1;" offset="0.386719"/><stop style="stop-color:#4034ff;stop-opacity:1;" offset="0.390625"/><stop style="stop-color:#4132ff;stop-opacity:1;" offset="0.394531"/><stop style="stop-color:#4230ff;stop-opacity:1;" offset="0.398438"/><stop style="stop-color:#422eff;stop-opacity:1;" offset="0.402344"/><stop style="stop-color:#432cff;stop-opacity:1;" offset="0.40625"/><stop style="stop-color:#442aff;stop-opacity:1;" offset="0.410156"/><stop style="stop-color:#4429ff;stop-opacity:1;" offset="0.414063"/><stop style="stop-color:#4527ff;stop-opacity:1;" offset="0.417969"/><stop style="stop-color:#4525ff;stop-opacity:1;" offset="0.421875"/><stop style="stop-color:#4623ff;stop-opacity:1;" offset="0.425781"/><stop style="stop-color:#4721ff;stop-opacity:1;" offset="0.429688"/><stop style="stop-color:#471fff;stop-opacity:1;" offset="0.433594"/><stop style="stop-color:#481dff;stop-opacity:1;" offset="0.4375"/><stop style="stop-color:#491cff;stop-opacity:1;" offset="0.441406"/><stop style="stop-color:#491aff;stop-opacity:1;" offset="0.445313"/><stop style="stop-color:#4a18ff;stop-opacity:1;" offset="0.449219"/><stop style="stop-color:#4a16ff;stop-opacity:1;" offset="0.453125"/><stop style="stop-color:#4b14ff;stop-opacity:1;" offset="0.457031"/><stop style="stop-color:#4c12ff;stop-opacity:1;" offset="0.460938"/><stop style="stop-color:#4c11ff;stop-opacity:1;" offset="0.464844"/><stop style="stop-color:#4d0fff;stop-opacity:1;" offset="0.46875"/><stop style="stop-color:#4e0dff;stop-opacity:1;" offset="0.472656"/><stop style="stop-color:#4e0bff;stop-opacity:1;" offset="0.476563"/><stop style="stop-color:#4f09ff;stop-opacity:1;" offset="0.480469"/><stop style="stop-color:#4f07ff;stop-opacity:1;" offset="0.484375"/><stop style="stop-color:#5006ff;stop-opacity:1;" offset="0.488281"/><stop style="stop-color:#5104ff;stop-opacity:1;" offset="0.492188"/><stop style="stop-color:#5102ff;stop-opacity:1;" offset="0.496094"/><stop style="stop-color:#5200ff;stop-opacity:1;" offset="0.5"/><stop style="stop-color:#5300ff;stop-opacity:1;" offset="0.503906"/><stop style="stop-color:#5501ff;stop-opacity:1;" offset="0.507812"/><stop style="stop-color:#5601ff;stop-opacity:1;" offset="0.511719"/><stop style="stop-color:#5701ff;stop-opacity:1;" offset="0.515625"/><stop style="stop-color:#5902ff;stop-opacity:1;" offset="0.519531"/><stop style="stop-color:#5a02ff;stop-opacity:1;" offset="0.523438"/><stop style="stop-color:#5b02ff;stop-opacity:1;" offset="0.527344"/><stop style="stop-color:#5d03ff;stop-opacity:1;" offset="0.53125"/><stop style="stop-color:#5e03fe;stop-opacity:1;" offset="0.535156"/><stop style="stop-color:#5f03fe;stop-opacity:1;" offset="0.539063"/><stop style="stop-color:#6104fe;stop-opacity:1;" offset="0.542969"/><stop style="stop-color:#6204fe;stop-opacity:1;" offset="0.546875"/><stop style="stop-color:#6304fe;stop-opacity:1;" offset="0.550781"/><stop style="stop-color:#6505fe;stop-opacity:1;" offset="0.554688"/><stop style="stop-color:#6605fe;stop-opacity:1;" offset="0.558594"/><stop style="stop-color:#6706fe;stop-opacity:1;" offset="0.5625"/><stop style="stop-color:#6906fe;stop-opacity:1;" offset="0.566406"/><stop style="stop-color:#6a06fe;stop-opacity:1;" offset="0.570313"/><stop style="stop-color:#6b07fe;stop-opacity:1;" offset="0.574219"/><stop style="stop-color:#6d07fe;stop-opacity:1;" offset="0.578125"/><stop style="stop-color:#6e07fe;stop-opacity:1;" offset="0.582031"/><stop style="stop-color:#6f08fe;stop-opacity:1;" offset="0.585938"/><stop style="stop-color:#7108fe;stop-opacity:1;" offset="0.589844"/><stop style="stop-color:#7208fe;stop-opacity:1;" offset="0.59375"/><stop style="stop-color:#7309fd;stop-opacity:1;" offset="0.597656"/><stop style="stop-color:#7509fd;stop-opacity:1;" offset="0.601563"/><stop style="stop-color:#7609fd;stop-opacity:1;" offset="0.605469"/><stop style="stop-color:#770afd;stop-opacity:1;" offset="0.609375"/><stop style="stop-color:#790afd;stop-opacity:1;" offset="0.613281"/><stop style="stop-color:#7a0afd;stop-opacity:1;" offset="0.617188"/><stop style="stop-color:#7b0bfd;stop-opacity:1;" offset="0.621094"/><stop style="stop-color:#7d0bfd;stop-opacity:1;" offset="0.625"/><stop style="stop-color:#7e0bfd;stop-opacity:1;" offset="0.628906"/><stop style="stop-color:#7f0cfd;stop-opacity:1;" offset="0.632813"/><stop style="stop-color:#800cfd;stop-opacity:1;" offset="0.636719"/><stop style="stop-color:#820cfd;stop-opacity:1;" offset="0.640625"/><stop style="stop-color:#830dfd;stop-opacity:1;" offset="0.644531"/><stop style="stop-color:#840dfd;stop-opacity:1;" offset="0.648438"/><stop style="stop-color:#860dfd;stop-opacity:1;" offset="0.652344"/><stop style="stop-color:#870efd;stop-opacity:1;" offset="0.65625"/><stop style="stop-color:#880efc;stop-opacity:1;" offset="0.660156"/><stop style="stop-color:#8a0ffc;stop-opacity:1;" offset="0.664063"/><stop style="stop-color:#8b0ffc;stop-opacity:1;" offset="0.667969"/><stop style="stop-color:#8c0ffc;stop-opacity:1;" offset="0.671875"/><stop style="stop-color:#8e10fc;stop-opacity:1;" offset="0.675781"/><stop style="stop-color:#8f10fc;stop-opacity:1;" offset="0.679688"/><stop style="stop-color:#9010fc;stop-opacity:1;" offset="0.683594"/><stop style="stop-color:#9211fc;stop-opacity:1;" offset="0.6875"/><stop style="stop-color:#9311fc;stop-opacity:1;" offset="0.691406"/><stop style="stop-color:#9411fc;stop-opacity:1;" offset="0.695313"/><stop style="stop-color:#9612fc;stop-opacity:1;" offset="0.699219"/><stop style="stop-color:#9712fc;stop-opacity:1;" offset="0.703125"/><stop style="stop-color:#9812fc;stop-opacity:1;" offset="0.707031"/><stop style="stop-color:#9a13fc;stop-opacity:1;" offset="0.710938"/><stop style="stop-color:#9b13fc;stop-opacity:1;" offset="0.714844"/><stop style="stop-color:#9c13fc;stop-opacity:1;" offset="0.71875"/><stop style="stop-color:#9e14fb;stop-opacity:1;" offset="0.722656"/><stop style="stop-color:#9f14fb;stop-opacity:1;" offset="0.726563"/><stop style="stop-color:#a014fb;stop-opacity:1;" offset="0.730469"/><stop style="stop-color:#a215fb;stop-opacity:1;" offset="0.734375"/><stop style="stop-color:#a315fb;stop-opacity:1;" offset="0.738281"/><stop style="stop-color:#a415fb;stop-opacity:1;" offset="0.742188"/><stop style="stop-color:#a616fb;stop-opacity:1;" offset="0.746094"/><stop style="stop-color:#a716fb;stop-opacity:1;" offset="0.75"/><stop style="stop-color:#a816fb;stop-opacity:1;" offset="0.753906"/><stop style="stop-color:#aa17fb;stop-opacity:1;" offset="0.757813"/><stop style="stop-color:#ab17fb;stop-opacity:1;" offset="0.761719"/><stop style="stop-color:#ac17fb;stop-opacity:1;" offset="0.765625"/><stop style="stop-color:#ae18fb;stop-opacity:1;" offset="0.769531"/><stop style="stop-color:#af18fb;stop-opacity:1;" offset="0.773438"/><stop style="stop-color:#b019fb;stop-opacity:1;" offset="0.777344"/><stop style="stop-color:#b219fb;stop-opacity:1;" offset="0.78125"/><stop style="stop-color:#b319fb;stop-opacity:1;" offset="0.785156"/><stop style="stop-color:#b41afa;stop-opacity:1;" offset="0.789063"/><stop style="stop-color:#b61afa;stop-opacity:1;" offset="0.792969"/><stop style="stop-color:#b71afa;stop-opacity:1;" offset="0.796875"/><stop style="stop-color:#b81bfa;stop-opacity:1;" offset="0.800781"/><stop style="stop-color:#ba1bfa;stop-opacity:1;" offset="0.804688"/><stop style="stop-color:#bb1bfa;stop-opacity:1;" offset="0.808594"/><stop style="stop-color:#bc1cfa;stop-opacity:1;" offset="0.8125"/><stop style="stop-color:#be1cfa;stop-opacity:1;" offset="0.816406"/><stop style="stop-color:#bf1cfa;stop-opacity:1;" offset="0.820313"/><stop style="stop-color:#c01dfa;stop-opacity:1;" offset="0.824219"/><stop style="stop-color:#c21dfa;stop-opacity:1;" offset="0.828125"/><stop style="stop-color:#c31dfa;stop-opacity:1;" offset="0.832031"/><stop style="stop-color:#c41efa;stop-opacity:1;" offset="0.835938"/><stop style="stop-color:#c61efa;stop-opacity:1;" offset="0.839844"/><stop style="stop-color:#c71efa;stop-opacity:1;" offset="0.84375"/><stop style="stop-color:#c81ffa;stop-opacity:1;" offset="0.847656"/><stop style="stop-color:#ca1ff9;stop-opacity:1;" offset="0.851562"/><stop style="stop-color:#cb1ff9;stop-opacity:1;" offset="0.855469"/><stop style="stop-color:#cc20f9;stop-opacity:1;" offset="0.859375"/><stop style="stop-color:#ce20f9;stop-opacity:1;" offset="0.863281"/><stop style="stop-color:#cf20f9;stop-opacity:1;" offset="0.867188"/><stop style="stop-color:#d021f9;stop-opacity:1;" offset="0.871094"/><stop style="stop-color:#d221f9;stop-opacity:1;" offset="0.875"/><stop style="stop-color:#d322f9;stop-opacity:1;" offset="0.878906"/><stop style="stop-color:#d422f9;stop-opacity:1;" offset="0.882812"/><stop style="stop-color:#d622f9;stop-opacity:1;" offset="0.886719"/><stop style="stop-color:#d723f9;stop-opacity:1;" offset="0.890625"/><stop style="stop-color:#d823f9;stop-opacity:1;" offset="0.894531"/><stop style="stop-color:#d923f9;stop-opacity:1;" offset="0.898438"/><stop style="stop-color:#db24f9;stop-opacity:1;" offset="0.902344"/><stop style="stop-color:#dc24f9;stop-opacity:1;" offset="0.90625"/><stop style="stop-color:#dd24f9;stop-opacity:1;" offset="0.910156"/><stop style="stop-color:#df25f8;stop-opacity:1;" offset="0.914062"/><stop style="stop-color:#e025f8;stop-opacity:1;" offset="0.917969"/><stop style="stop-color:#e125f8;stop-opacity:1;" offset="0.921875"/><stop style="stop-color:#e326f8;stop-opacity:1;" offset="0.925781"/><stop style="stop-color:#e426f8;stop-opacity:1;" offset="0.929688"/><stop style="stop-color:#e526f8;stop-opacity:1;" offset="0.933594"/><stop style="stop-color:#e727f8;stop-opacity:1;" offset="0.9375"/><stop style="stop-color:#e827f8;stop-opacity:1;" offset="0.941406"/><stop style="stop-color:#e927f8;stop-opacity:1;" offset="0.945312"/><stop style="stop-color:#eb28f8;stop-opacity:1;" offset="0.949219"/><stop style="stop-color:#ec28f8;stop-opacity:1;" offset="0.953125"/><stop style="stop-color:#ed28f8;stop-opacity:1;" offset="0.957031"/><stop style="stop-color:#ef29f8;stop-opacity:1;" offset="0.960938"/><stop style="stop-color:#f029f8;stop-opacity:1;" offset="0.964844"/><stop style="stop-color:#f129f8;stop-opacity:1;" offset="0.96875"/><stop style="stop-color:#f32af8;stop-opacity:1;" offset="0.972656"/><stop style="stop-color:#f42af7;stop-opacity:1;" offset="0.976562"/><stop style="stop-color:#f52bf7;stop-opacity:1;" offset="0.980469"/><stop style="stop-color:#f72bf7;stop-opacity:1;" offset="0.984375"/><stop style="stop-color:#f82bf7;stop-opacity:1;" offset="0.988281"/><stop style="stop-color:#f92cf7;stop-opacity:1;" offset="0.992188"/><stop style="stop-color:#fb2cf7;stop-opacity:1;" offset="0.996094"/><stop style="stop-color:#fc2cf7;stop-opacity:1;" offset="1"/></linearGradient><clipPath id="32e6d70f89"><rect x="0" width="354" y="0" height="113"/></clipPath><clipPath id="e6e7ff1dd8"><path d="M 31.921875 11.136719 L 120.777344 11.136719 L 120.777344 99.992188 L 31.921875 99.992188 Z M 31.921875 11.136719 "/></clipPath></defs><g id="5d51948744"><g clip-rule="nonzero" clip-path="url(#c5adbb61b3)"><path style=" stroke:none;fill-rule:nonzero;fill:#ffffff;fill-opacity:1;" d="M 0.660156 0 L 353.839844 0 L 353.839844 112.003906 L 0.660156 112.003906 Z M 0.660156 0 "/><path style=" stroke:none;fill-rule:nonzero;fill:#ffffff;fill-opacity:1;" d="M 0.660156 0 L 353.839844 0 L 353.839844 112.003906 L 0.660156 112.003906 Z M 0.660156 0 "/><g transform="matrix(1,0,0,1,0.000000000000000111,0)"><g clip-path="url(#32e6d70f89)"><g clip-rule="nonzero" clip-path="url(#a6024dfdbc)"><path style=" stroke:none;fill-rule:nonzero;fill:url(#3e91de1159);" d="M 0.660156 0 L 0.660156 112.003906 L 353.835938 112.003906 L 353.835938 0 Z M 0.660156 0 "/></g></g></g></g><g clip-rule="nonzero" clip-path="url(#e6e7ff1dd8)"><path style=" stroke:none;fill-rule:nonzero;fill:#ffffff;fill-opacity:1;" d="M 91.398438 40.882812 L 61.65625 40.882812 L 61.65625 11.136719 L 91.398438 11.136719 Z M 121.144531 40.882812 L 91.398438 40.882812 L 91.398438 11.136719 L 121.144531 11.136719 Z M 121.144531 70.617188 L 91.398438 70.617188 L 91.398438 40.871094 L 121.144531 40.871094 Z M 61.664062 70.617188 L 61.664062 40.871094 L 31.921875 40.871094 L 31.921875 70.617188 Z M 61.664062 100.359375 L 61.664062 70.617188 L 31.921875 70.617188 L 31.921875 100.359375 Z M 91.398438 100.359375 L 91.398438 70.617188 L 61.65625 70.617188 L 61.65625 100.359375 Z M 91.398438 100.359375 "/></g><g style="fill:#ffffff;fill-opacity:1;"><g transform="translate(142.187629, 53.588045)"><path style="stroke:none" d="M 10.125 0 L 3.984375 0 L 3.984375 -33.5 L 10.125 -33.5 Z M 10.125 0 "/></g></g><g style="fill:#ffffff;fill-opacity:1;"><g transform="translate(156.277503, 53.588045)"><path style="stroke:none" d="M 13.9375 0.765625 C 12.15625 0.765625 10.507812 0.421875 9 -0.265625 C 7.5 -0.960938 6.207031 -1.925781 5.125 -3.15625 C 4.039062 -4.382812 3.195312 -5.8125 2.59375 -7.4375 C 2 -9.0625 1.703125 -10.800781 1.703125 -12.65625 C 1.703125 -14.519531 1.992188 -16.257812 2.578125 -17.875 C 3.160156 -19.488281 3.992188 -20.910156 5.078125 -22.140625 C 6.171875 -23.378906 7.472656 -24.347656 8.984375 -25.046875 C 10.503906 -25.742188 12.179688 -26.09375 14.015625 -26.09375 C 15.398438 -26.09375 16.65625 -25.847656 17.78125 -25.359375 C 18.90625 -24.878906 19.875 -24.265625 20.6875 -23.515625 C 21.5 -22.765625 22.125 -21.988281 22.5625 -21.1875 L 22.4375 -23.828125 L 22.4375 -34.6875 L 28.375 -34.6875 L 28.375 0 L 22.71875 0 L 22.71875 -4.265625 C 22.21875 -3.378906 21.550781 -2.550781 20.71875 -1.78125 C 19.882812 -1.019531 18.898438 -0.40625 17.765625 0.0625 C 16.628906 0.53125 15.351562 0.765625 13.9375 0.765625 Z M 15.03125 -4.734375 C 16.0625 -4.734375 17.03125 -4.929688 17.9375 -5.328125 C 18.84375 -5.734375 19.632812 -6.296875 20.3125 -7.015625 C 20.988281 -7.742188 21.519531 -8.585938 21.90625 -9.546875 C 22.289062 -10.503906 22.484375 -11.539062 22.484375 -12.65625 C 22.484375 -13.78125 22.296875 -14.816406 21.921875 -15.765625 C 21.546875 -16.722656 21.015625 -17.5625 20.328125 -18.28125 C 19.648438 -19 18.859375 -19.5625 17.953125 -19.96875 C 17.054688 -20.375 16.082031 -20.578125 15.03125 -20.578125 C 13.632812 -20.578125 12.367188 -20.234375 11.234375 -19.546875 C 10.097656 -18.867188 9.203125 -17.9375 8.546875 -16.75 C 7.890625 -15.570312 7.5625 -14.207031 7.5625 -12.65625 C 7.5625 -11.164062 7.878906 -9.820312 8.515625 -8.625 C 9.160156 -7.425781 10.046875 -6.476562 11.171875 -5.78125 C 12.296875 -5.082031 13.582031 -4.734375 15.03125 -4.734375 Z M 15.03125 -4.734375 "/></g></g><g style="fill:#ffffff;fill-opacity:1;"><g transform="translate(188.127514, 53.588045)"><path style="stroke:none" d="M 27.59375 -13.109375 C 27.59375 -12.796875 27.582031 -12.5 27.5625 -12.21875 C 27.550781 -11.9375 27.519531 -11.554688 27.46875 -11.078125 L 7.6875 -11.078125 C 7.894531 -9.703125 8.332031 -8.53125 9 -7.5625 C 9.664062 -6.59375 10.488281 -5.847656 11.46875 -5.328125 C 12.457031 -4.816406 13.535156 -4.5625 14.703125 -4.5625 C 16.210938 -4.5625 17.4375 -4.859375 18.375 -5.453125 C 19.3125 -6.054688 19.992188 -6.890625 20.421875 -7.953125 L 26.921875 -7.953125 C 26.609375 -6.816406 26.09375 -5.722656 25.375 -4.671875 C 24.664062 -3.628906 23.796875 -2.703125 22.765625 -1.890625 C 21.734375 -1.078125 20.546875 -0.429688 19.203125 0.046875 C 17.867188 0.523438 16.410156 0.765625 14.828125 0.765625 C 12.921875 0.765625 11.164062 0.414062 9.5625 -0.28125 C 7.96875 -0.976562 6.582031 -1.941406 5.40625 -3.171875 C 4.226562 -4.410156 3.316406 -5.84375 2.671875 -7.46875 C 2.023438 -9.09375 1.703125 -10.820312 1.703125 -12.65625 C 1.703125 -14.519531 2.023438 -16.257812 2.671875 -17.875 C 3.316406 -19.488281 4.226562 -20.910156 5.40625 -22.140625 C 6.582031 -23.378906 7.96875 -24.347656 9.5625 -25.046875 C 11.164062 -25.742188 12.921875 -26.09375 14.828125 -26.09375 C 16.734375 -26.09375 18.46875 -25.742188 20.03125 -25.046875 C 21.601562 -24.359375 22.953125 -23.410156 24.078125 -22.203125 C 25.203125 -20.992188 26.066406 -19.609375 26.671875 -18.046875 C 27.285156 -16.492188 27.59375 -14.847656 27.59375 -13.109375 Z M 7.9375 -15.6875 L 21.5 -15.6875 C 21.425781 -16.644531 21.078125 -17.515625 20.453125 -18.296875 C 19.828125 -19.078125 19.019531 -19.703125 18.03125 -20.171875 C 17.050781 -20.648438 15.976562 -20.890625 14.8125 -20.890625 C 13.800781 -20.890625 12.835938 -20.703125 11.921875 -20.328125 C 11.003906 -19.960938 10.195312 -19.394531 9.5 -18.625 C 8.800781 -17.863281 8.28125 -16.882812 7.9375 -15.6875 Z M 7.9375 -15.6875 "/></g></g><g style="fill:#ffffff;fill-opacity:1;"><g transform="translate(217.070874, 53.588045)"><path style="stroke:none" d="M 13.625 0.765625 C 11.914062 0.765625 10.332031 0.421875 8.875 -0.265625 C 7.425781 -0.960938 6.160156 -1.925781 5.078125 -3.15625 C 4.003906 -4.382812 3.171875 -5.8125 2.578125 -7.4375 C 1.992188 -9.0625 1.703125 -10.800781 1.703125 -12.65625 C 1.703125 -14.519531 2 -16.257812 2.59375 -17.875 C 3.195312 -19.488281 4.035156 -20.910156 5.109375 -22.140625 C 6.179688 -23.378906 7.441406 -24.347656 8.890625 -25.046875 C 10.335938 -25.742188 11.90625 -26.09375 13.59375 -26.09375 C 15.664062 -26.09375 17.503906 -25.644531 19.109375 -24.75 C 20.722656 -23.851562 21.929688 -22.613281 22.734375 -21.03125 L 22.734375 -25.328125 L 28.40625 -25.328125 L 28.40625 0 L 22.734375 0 L 22.734375 -4.265625 C 21.910156 -2.679688 20.695312 -1.445312 19.09375 -0.5625 C 17.5 0.320312 15.675781 0.765625 13.625 0.765625 Z M 15.046875 -4.75 C 16.085938 -4.75 17.054688 -4.953125 17.953125 -5.359375 C 18.859375 -5.765625 19.648438 -6.320312 20.328125 -7.03125 C 21.015625 -7.75 21.546875 -8.585938 21.921875 -9.546875 C 22.296875 -10.503906 22.484375 -11.539062 22.484375 -12.65625 C 22.484375 -13.757812 22.289062 -14.789062 21.90625 -15.75 C 21.519531 -16.71875 20.988281 -17.5625 20.3125 -18.28125 C 19.644531 -19 18.859375 -19.5625 17.953125 -19.96875 C 17.054688 -20.375 16.085938 -20.578125 15.046875 -20.578125 C 13.679688 -20.578125 12.4375 -20.242188 11.3125 -19.578125 C 10.1875 -18.921875 9.285156 -18 8.609375 -16.8125 C 7.941406 -15.632812 7.609375 -14.25 7.609375 -12.65625 C 7.609375 -11.019531 7.945312 -9.609375 8.625 -8.421875 C 9.3125 -7.242188 10.222656 -6.335938 11.359375 -5.703125 C 12.492188 -5.066406 13.722656 -4.75 15.046875 -4.75 Z M 15.046875 -4.75 "/></g></g><g style="fill:#ffffff;fill-opacity:1;"><g transform="translate(248.974731, 53.588045)"><path style="stroke:none" d=""/></g></g><g style="fill:#ffffff;fill-opacity:1;"><g transform="translate(142.187629, 93.162157)"><path style="stroke:none" d="M 19.0625 0 L 13.921875 0 C 13.160156 0 12.378906 -0.0664062 11.578125 -0.203125 C 10.785156 -0.347656 10.03125 -0.609375 9.3125 -0.984375 C 8.59375 -1.359375 7.945312 -1.898438 7.375 -2.609375 C 6.8125 -3.328125 6.359375 -4.257812 6.015625 -5.40625 C 5.679688 -6.550781 5.515625 -7.957031 5.515625 -9.625 L 5.515625 -20.203125 L 0.265625 -20.203125 L 0.265625 -25.328125 L 5.515625 -25.328125 L 5.515625 -32.734375 L 11.484375 -32.796875 L 11.484375 -25.328125 L 19.0625 -25.328125 L 19.0625 -20.203125 L 11.484375 -20.203125 L 11.484375 -9.359375 C 11.484375 -8.179688 11.65625 -7.269531 12 -6.625 C 12.34375 -5.988281 12.796875 -5.550781 13.359375 -5.3125 C 13.929688 -5.070312 14.53125 -4.953125 15.15625 -4.953125 L 19.0625 -4.953125 Z M 19.0625 0 "/></g></g><g style="fill:#ffffff;fill-opacity:1;"><g transform="translate(161.893666, 93.162157)"><path style="stroke:none" d="M 15 0.765625 C 13.082031 0.765625 11.3125 0.421875 9.6875 -0.265625 C 8.0625 -0.960938 6.648438 -1.925781 5.453125 -3.15625 C 4.265625 -4.382812 3.34375 -5.8125 2.6875 -7.4375 C 2.03125 -9.0625 1.703125 -10.800781 1.703125 -12.65625 C 1.703125 -14.519531 2.03125 -16.257812 2.6875 -17.875 C 3.34375 -19.488281 4.265625 -20.910156 5.453125 -22.140625 C 6.648438 -23.378906 8.0625 -24.347656 9.6875 -25.046875 C 11.3125 -25.742188 13.09375 -26.09375 15.03125 -26.09375 C 16.976562 -26.09375 18.765625 -25.742188 20.390625 -25.046875 C 22.023438 -24.347656 23.441406 -23.378906 24.640625 -22.140625 C 25.835938 -20.910156 26.765625 -19.488281 27.421875 -17.875 C 28.078125 -16.257812 28.40625 -14.519531 28.40625 -12.65625 C 28.40625 -10.789062 28.078125 -9.046875 27.421875 -7.421875 C 26.765625 -5.804688 25.835938 -4.382812 24.640625 -3.15625 C 23.441406 -1.925781 22.023438 -0.960938 20.390625 -0.265625 C 18.753906 0.421875 16.957031 0.765625 15 0.765625 Z M 15.046875 -4.78125 C 16.484375 -4.78125 17.757812 -5.117188 18.875 -5.796875 C 19.988281 -6.484375 20.867188 -7.414062 21.515625 -8.59375 C 22.160156 -9.78125 22.484375 -11.132812 22.484375 -12.65625 C 22.484375 -14.1875 22.160156 -15.546875 21.515625 -16.734375 C 20.867188 -17.929688 19.988281 -18.867188 18.875 -19.546875 C 17.757812 -20.234375 16.484375 -20.578125 15.046875 -20.578125 C 13.640625 -20.578125 12.375 -20.234375 11.25 -19.546875 C 10.125 -18.867188 9.234375 -17.929688 8.578125 -16.734375 C 7.929688 -15.546875 7.609375 -14.1875 7.609375 -12.65625 C 7.609375 -11.132812 7.929688 -9.78125 8.578125 -8.59375 C 9.234375 -7.414062 10.125 -6.484375 11.25 -5.796875 C 12.375 -5.117188 13.640625 -4.78125 15.046875 -4.78125 Z M 15.046875 -4.78125 "/></g></g><g style="fill:#ffffff;fill-opacity:1;"><g transform="translate(191.99476, 93.162157)"><path style="stroke:none" d="M 19.3125 0.71875 C 17.34375 0.71875 15.46875 0.425781 13.6875 -0.15625 C 11.914062 -0.738281 10.296875 -1.5625 8.828125 -2.625 C 7.359375 -3.695312 6.085938 -4.960938 5.015625 -6.421875 C 3.941406 -7.890625 3.109375 -9.5 2.515625 -11.25 C 1.921875 -13.007812 1.625 -14.859375 1.625 -16.796875 C 1.625 -18.753906 1.921875 -20.609375 2.515625 -22.359375 C 3.109375 -24.109375 3.941406 -25.707031 5.015625 -27.15625 C 6.085938 -28.613281 7.359375 -29.875 8.828125 -30.9375 C 10.296875 -32.007812 11.914062 -32.835938 13.6875 -33.421875 C 15.46875 -34.003906 17.34375 -34.296875 19.3125 -34.296875 C 21.082031 -34.296875 22.835938 -34.03125 24.578125 -33.5 C 26.328125 -32.976562 27.957031 -32.175781 29.46875 -31.09375 C 30.976562 -30.019531 32.257812 -28.660156 33.3125 -27.015625 C 34.363281 -25.378906 35.082031 -23.445312 35.46875 -21.21875 L 29.21875 -21.21875 C 28.769531 -22.9375 28.054688 -24.34375 27.078125 -25.4375 C 26.109375 -26.539062 24.941406 -27.351562 23.578125 -27.875 C 22.210938 -28.40625 20.734375 -28.671875 19.140625 -28.671875 C 17.566406 -28.671875 16.085938 -28.382812 14.703125 -27.8125 C 13.328125 -27.25 12.117188 -26.441406 11.078125 -25.390625 C 10.035156 -24.347656 9.222656 -23.097656 8.640625 -21.640625 C 8.054688 -20.191406 7.765625 -18.570312 7.765625 -16.78125 C 7.765625 -14.957031 8.054688 -13.316406 8.640625 -11.859375 C 9.222656 -10.410156 10.035156 -9.164062 11.078125 -8.125 C 12.117188 -7.09375 13.328125 -6.300781 14.703125 -5.75 C 16.085938 -5.195312 17.566406 -4.921875 19.140625 -4.921875 C 20.734375 -4.921875 22.207031 -5.179688 23.5625 -5.703125 C 24.914062 -6.234375 26.082031 -7.050781 27.0625 -8.15625 C 28.050781 -9.257812 28.757812 -10.660156 29.1875 -12.359375 L 35.46875 -12.359375 C 35.082031 -10.128906 34.363281 -8.1875 33.3125 -6.53125 C 32.257812 -4.882812 30.984375 -3.523438 29.484375 -2.453125 C 27.992188 -1.390625 26.375 -0.59375 24.625 -0.0625 C 22.875 0.457031 21.101562 0.71875 19.3125 0.71875 Z M 19.3125 0.71875 "/></g></g><g style="fill:#ffffff;fill-opacity:1;"><g transform="translate(229.116158, 93.162157)"><path style="stroke:none" d="M 15 0.765625 C 13.082031 0.765625 11.3125 0.421875 9.6875 -0.265625 C 8.0625 -0.960938 6.648438 -1.925781 5.453125 -3.15625 C 4.265625 -4.382812 3.34375 -5.8125 2.6875 -7.4375 C 2.03125 -9.0625 1.703125 -10.800781 1.703125 -12.65625 C 1.703125 -14.519531 2.03125 -16.257812 2.6875 -17.875 C 3.34375 -19.488281 4.265625 -20.910156 5.453125 -22.140625 C 6.648438 -23.378906 8.0625 -24.347656 9.6875 -25.046875 C 11.3125 -25.742188 13.09375 -26.09375 15.03125 -26.09375 C 16.976562 -26.09375 18.765625 -25.742188 20.390625 -25.046875 C 22.023438 -24.347656 23.441406 -23.378906 24.640625 -22.140625 C 25.835938 -20.910156 26.765625 -19.488281 27.421875 -17.875 C 28.078125 -16.257812 28.40625 -14.519531 28.40625 -12.65625 C 28.40625 -10.789062 28.078125 -9.046875 27.421875 -7.421875 C 26.765625 -5.804688 25.835938 -4.382812 24.640625 -3.15625 C 23.441406 -1.925781 22.023438 -0.960938 20.390625 -0.265625 C 18.753906 0.421875 16.957031 0.765625 15 0.765625 Z M 15.046875 -4.78125 C 16.484375 -4.78125 17.757812 -5.117188 18.875 -5.796875 C 19.988281 -6.484375 20.867188 -7.414062 21.515625 -8.59375 C 22.160156 -9.78125 22.484375 -11.132812 22.484375 -12.65625 C 22.484375 -14.1875 22.160156 -15.546875 21.515625 -16.734375 C 20.867188 -17.929688 19.988281 -18.867188 18.875 -19.546875 C 17.757812 -20.234375 16.484375 -20.578125 15.046875 -20.578125 C 13.640625 -20.578125 12.375 -20.234375 11.25 -19.546875 C 10.125 -18.867188 9.234375 -17.929688 8.578125 -16.734375 C 7.929688 -15.546875 7.609375 -14.1875 7.609375 -12.65625 C 7.609375 -11.132812 7.929688 -9.78125 8.578125 -8.59375 C 9.234375 -7.414062 10.125 -6.484375 11.25 -5.796875 C 12.375 -5.117188 13.640625 -4.78125 15.046875 -4.78125 Z M 15.046875 -4.78125 "/></g></g><g style="fill:#ffffff;fill-opacity:1;"><g transform="translate(259.217251, 93.162157)"><path style="stroke:none" d="M 13.9375 0.765625 C 12.15625 0.765625 10.507812 0.421875 9 -0.265625 C 7.5 -0.960938 6.207031 -1.925781 5.125 -3.15625 C 4.039062 -4.382812 3.195312 -5.8125 2.59375 -7.4375 C 2 -9.0625 1.703125 -10.800781 1.703125 -12.65625 C 1.703125 -14.519531 1.992188 -16.257812 2.578125 -17.875 C 3.160156 -19.488281 3.992188 -20.910156 5.078125 -22.140625 C 6.171875 -23.378906 7.472656 -24.347656 8.984375 -25.046875 C 10.503906 -25.742188 12.179688 -26.09375 14.015625 -26.09375 C 15.398438 -26.09375 16.65625 -25.847656 17.78125 -25.359375 C 18.90625 -24.878906 19.875 -24.265625 20.6875 -23.515625 C 21.5 -22.765625 22.125 -21.988281 22.5625 -21.1875 L 22.4375 -23.828125 L 22.4375 -34.6875 L 28.375 -34.6875 L 28.375 0 L 22.71875 0 L 22.71875 -4.265625 C 22.21875 -3.378906 21.550781 -2.550781 20.71875 -1.78125 C 19.882812 -1.019531 18.898438 -0.40625 17.765625 0.0625 C 16.628906 0.53125 15.351562 0.765625 13.9375 0.765625 Z M 15.03125 -4.734375 C 16.0625 -4.734375 17.03125 -4.929688 17.9375 -5.328125 C 18.84375 -5.734375 19.632812 -6.296875 20.3125 -7.015625 C 20.988281 -7.742188 21.519531 -8.585938 21.90625 -9.546875 C 22.289062 -10.503906 22.484375 -11.539062 22.484375 -12.65625 C 22.484375 -13.78125 22.296875 -14.816406 21.921875 -15.765625 C 21.546875 -16.722656 21.015625 -17.5625 20.328125 -18.28125 C 19.648438 -19 18.859375 -19.5625 17.953125 -19.96875 C 17.054688 -20.375 16.082031 -20.578125 15.03125 -20.578125 C 13.632812 -20.578125 12.367188 -20.234375 11.234375 -19.546875 C 10.097656 -18.867188 9.203125 -17.9375 8.546875 -16.75 C 7.890625 -15.570312 7.5625 -14.207031 7.5625 -12.65625 C 7.5625 -11.164062 7.878906 -9.820312 8.515625 -8.625 C 9.160156 -7.425781 10.046875 -6.476562 11.171875 -5.78125 C 12.296875 -5.082031 13.582031 -4.734375 15.03125 -4.734375 Z M 15.03125 -4.734375 "/></g></g><g style="fill:#ffffff;fill-opacity:1;"><g transform="translate(291.067263, 93.162157)"><path style="stroke:none" d="M 27.59375 -13.109375 C 27.59375 -12.796875 27.582031 -12.5 27.5625 -12.21875 C 27.550781 -11.9375 27.519531 -11.554688 27.46875 -11.078125 L 7.6875 -11.078125 C 7.894531 -9.703125 8.332031 -8.53125 9 -7.5625 C 9.664062 -6.59375 10.488281 -5.847656 11.46875 -5.328125 C 12.457031 -4.816406 13.535156 -4.5625 14.703125 -4.5625 C 16.210938 -4.5625 17.4375 -4.859375 18.375 -5.453125 C 19.3125 -6.054688 19.992188 -6.890625 20.421875 -7.953125 L 26.921875 -7.953125 C 26.609375 -6.816406 26.09375 -5.722656 25.375 -4.671875 C 24.664062 -3.628906 23.796875 -2.703125 22.765625 -1.890625 C 21.734375 -1.078125 20.546875 -0.429688 19.203125 0.046875 C 17.867188 0.523438 16.410156 0.765625 14.828125 0.765625 C 12.921875 0.765625 11.164062 0.414062 9.5625 -0.28125 C 7.96875 -0.976562 6.582031 -1.941406 5.40625 -3.171875 C 4.226562 -4.410156 3.316406 -5.84375 2.671875 -7.46875 C 2.023438 -9.09375 1.703125 -10.820312 1.703125 -12.65625 C 1.703125 -14.519531 2.023438 -16.257812 2.671875 -17.875 C 3.316406 -19.488281 4.226562 -20.910156 5.40625 -22.140625 C 6.582031 -23.378906 7.96875 -24.347656 9.5625 -25.046875 C 11.164062 -25.742188 12.921875 -26.09375 14.828125 -26.09375 C 16.734375 -26.09375 18.46875 -25.742188 20.03125 -25.046875 C 21.601562 -24.359375 22.953125 -23.410156 24.078125 -22.203125 C 25.203125 -20.992188 26.066406 -19.609375 26.671875 -18.046875 C 27.285156 -16.492188 27.59375 -14.847656 27.59375 -13.109375 Z M 7.9375 -15.6875 L 21.5 -15.6875 C 21.425781 -16.644531 21.078125 -17.515625 20.453125 -18.296875 C 19.828125 -19.078125 19.019531 -19.703125 18.03125 -20.171875 C 17.050781 -20.648438 15.976562 -20.890625 14.8125 -20.890625 C 13.800781 -20.890625 12.835938 -20.703125 11.921875 -20.328125 C 11.003906 -19.960938 10.195312 -19.394531 9.5 -18.625 C 8.800781 -17.863281 8.28125 -16.882812 7.9375 -15.6875 Z M 7.9375 -15.6875 "/></g></g><g style="fill:#ffffff;fill-opacity:1;"><g transform="translate(320.010622, 93.162157)"><path style="stroke:none" d="M 6.625 0.609375 C 5.9375 0.609375 5.332031 0.460938 4.8125 0.171875 C 4.300781 -0.117188 3.894531 -0.515625 3.59375 -1.015625 C 3.300781 -1.523438 3.15625 -2.070312 3.15625 -2.65625 C 3.15625 -3.25 3.296875 -3.796875 3.578125 -4.296875 C 3.867188 -4.796875 4.273438 -5.191406 4.796875 -5.484375 C 5.328125 -5.785156 5.945312 -5.9375 6.65625 -5.9375 C 7.351562 -5.9375 7.960938 -5.785156 8.484375 -5.484375 C 9.003906 -5.191406 9.410156 -4.796875 9.703125 -4.296875 C 10.003906 -3.796875 10.15625 -3.25 10.15625 -2.65625 C 10.15625 -1.757812 9.832031 -0.988281 9.1875 -0.34375 C 8.550781 0.289062 7.695312 0.609375 6.625 0.609375 Z M 6.625 0.609375 "/></g></g></g></svg>