<?xml version="1.0" standalone="no"?>
<!DOCTYPE svg PUBLIC "-//W3C//DTD SVG 20010904//EN"
 "http://www.w3.org/TR/2001/REC-SVG-20010904/DTD/svg10.dtd">
<svg version="1.0" xmlns="http://www.w3.org/2000/svg"
 width="500.000000pt" height="307.000000pt" viewBox="0 0 500.000000 307.000000"
 preserveAspectRatio="xMidYMid meet">

<g transform="translate(0.000000,307.000000) scale(0.100000,-0.100000)"
fill="#000000" stroke="none">
<path fill="#fe5d4c" d="M3625 3060 c-158 -25 -356 -120 -442 -212 l-22 -24 294 -294 295
-295 92 91 c51 50 104 99 118 108 28 19 120 22 153 5 40 -20 147 -133 147
-154 0 -29 -382 -409 -432 -429 -47 -20 -108 -20 -156 -1 -25 11 -146 124
-369 348 -224 223 -336 328 -343 321 -5 -5 -19 -46 -31 -89 -34 -122 -31 -318
5 -438 56 -188 168 -351 311 -454 l29 -21 -53 -112 c-29 -62 -50 -118 -47
-126 9 -24 48 -16 222 49 147 55 174 62 209 56 68 -14 232 -10 313 7 257 53
487 236 596 476 60 133 71 187 71 353 -1 143 -2 154 -34 247 -94 275 -311 483
-585 562 -101 30 -247 40 -341 26z"/>
<path fill="#ffffffff" d="M17 1998 c-16 -12 -17 -50 -15 -649 l3 -635 24 -36 c13 -19 40 -46
59 -59 l36 -24 305 0 306 0 3 106 c2 96 1 108 -20 139 -47 69 -63 74 -231 80
l-152 5 -5 490 -5 490 -23 33 c-36 50 -75 65 -177 70 -65 3 -95 0 -108 -10z"/>
<path fill="#ffffffff" d="M1448 2000 c-17 -10 -18 -55 -18 -698 0 -522 3 -691 12 -700 17 -17
289 -17 306 0 9 9 12 166 12 645 0 611 -1 635 -20 672 -31 62 -78 85 -185 88
-53 2 -97 -1 -107 -7z"/>
<path fill="#ffffffff" d="M1013 1949 c-45 -13 -98 -71 -113 -123 -22 -81 29 -181 107 -207 119
-39 233 42 233 166 0 74 -38 129 -112 160 -41 17 -67 18 -115 4z"/>
<path fill="#ffffffff" d="M916 1474 c-14 -13 -16 -66 -16 -430 0 -267 4 -422 10 -435 10 -17
23 -19 160 -19 137 0 150 2 160 19 13 26 14 713 0 761 -12 45 -65 97 -111 110
-56 16 -185 13 -203 -6z"/>
<path fill="#ffffffff" d="M1952 1478 c-7 -7 -12 -21 -12 -32 0 -11 74 -184 165 -386 91 -201
165 -372 165 -379 0 -8 -58 -137 -130 -287 -71 -150 -130 -279 -130 -287 0
-32 26 -38 176 -35 l148 3 313 675 c172 371 313 684 313 696 0 38 -19 44 -135
44 -121 0 -180 -18 -209 -62 -8 -12 -47 -99 -86 -193 -40 -93 -75 -173 -79
-177 -3 -4 -37 68 -75 160 -85 206 -98 229 -150 253 -49 22 -253 28 -274 7z"/>
</g>
</svg>
