<svg width="144" height="18" viewBox="0 0 144 18" fill="none" xmlns="http://www.w3.org/2000/svg">
<g id="Logo">
<g id="Subtract">
<path fill-rule="evenodd" clip-rule="evenodd" d="M4.24845 10.3699H0.0759351L0.0248643 10.9953C-0.0688403 12.1427 0.101685 13.1692 0.547022 14.0576C0.992773 14.9468 1.69191 15.6538 2.58573 16.1963C4.34955 17.2667 6.9076 17.7193 9.99076 17.7193C10.7715 17.7193 11.5091 17.6868 12.2028 17.621H22.0079L23.4334 11.8823H31.0687C34.4152 11.8823 37.3267 10.7418 38.3053 6.81083C39.3805 2.50376 36.7831 0.2471 32.905 0.2471H14.7035C13.6983 0.0799619 12.5918 0 11.4013 0C8.71736 0 6.58499 0.402071 5.01033 1.21695C3.4102 2.045 2.40272 3.29335 2.00453 4.89805C1.65692 6.28308 1.73937 7.50341 2.32476 8.49134C2.72879 9.17319 3.33727 9.68481 4.0879 10.0549L4.24845 10.3699ZM0.70076 11.051C0.517082 13.3002 1.45794 14.8616 3.31267 15.8246C4.42551 16.4024 5.86733 16.7647 7.59265 16.931C8.34006 17.003 9.14067 17.0383 9.99079 17.0383C15.3686 17.0383 18.3551 15.4557 19.0934 12.4786C19.7326 9.9221 18.6747 8.2399 16.3384 7.59801C14.746 7.16048 13.0358 6.91321 11.6475 6.71248C10.9991 6.61872 10.4209 6.53512 9.95773 6.44703C8.59122 6.19248 8.04022 5.94901 8.1945 5.29604C8.34878 4.68735 9.04305 4.39961 10.9606 4.39961C13.407 4.39961 14.7405 4.96403 14.7956 6.29209H20.0632C20.3277 2.5182 17.0327 0.681055 11.4014 0.681055C10.2513 0.681055 9.21941 0.756803 8.30174 0.904484C7.94059 0.962602 7.59715 1.03186 7.27115 1.11203C4.63927 1.75923 3.14495 3.11732 2.66235 5.06364C2.57807 5.39927 2.52292 5.71739 2.49592 6.0183C2.46597 6.35218 2.47072 6.66485 2.50879 6.95678C2.6077 7.71516 2.93169 8.33336 3.45784 8.81877C3.93106 9.25536 4.56778 9.58445 5.35129 9.81143C6.8913 10.2654 8.67101 10.5214 10.109 10.7283C10.7393 10.819 11.304 10.9002 11.754 10.9845C13.1756 11.2612 13.7266 11.5711 13.5503 12.2905C13.374 12.9877 12.6026 13.3197 10.5308 13.3197C7.66553 13.3197 5.99046 12.6778 5.97944 11.051H0.70076ZM31.0445 4.77256C32.011 4.77256 32.3614 5.30639 32.1077 6.30126C31.8902 7.18694 31.407 7.49026 30.5371 7.49026H24.5328L25.2093 4.77256H31.0445Z" fill="white"/>
<path d="M124.456 4.89686H130.744L127.615 18H133.764L136.893 4.89686H142.804L144 0.246989H125.817L124.456 4.89686Z" fill="white"/>
<path fill-rule="evenodd" clip-rule="evenodd" d="M59.182 5.50051C60.0035 2.16405 57.9739 0.2471 54.1925 0.2471H40.8187L36.4937 17.621H42.6309L44.1773 11.4212H49.8312C51.136 11.4212 51.5709 12.2341 51.2689 13.4352L50.2299 17.621H56.355L57.4182 13.3503C57.986 11.0572 57.1282 9.54066 55.4731 8.94617C57.1282 8.75205 58.6263 7.74504 59.182 5.50051ZM51.5105 4.76042C52.5012 4.76042 53.0206 5.1608 52.7669 6.19207C52.5616 6.99282 52.0662 7.2476 51.293 7.2476H45.2162L45.8324 4.76042H51.5105Z" fill="white"/>
<path d="M78.2116 4.84535H66.7829L66.2997 6.81083H77.1606L76.1337 10.9359H65.2728L64.7533 13.0227H76.2666L75.1189 17.621H57.5771L61.9021 0.2471H79.3594L78.2116 4.84535Z" fill="white"/>
<path fill-rule="evenodd" clip-rule="evenodd" d="M98.7137 9.80758C100.055 4.39645 97.3364 0.2471 90.5227 0.2471H80.5316L76.2066 17.621H87.7319C93.3497 17.621 97.3968 15.0974 98.7137 9.80758ZM89.6166 5.01521C92.649 5.01521 93.0114 7.19907 92.4798 9.34654C91.9241 11.5789 90.7401 12.8529 87.9977 12.8529H83.5398L85.4969 5.01521H89.6166Z" fill="white"/>
<path d="M102.063 0.2471H108.213L103.888 17.621H97.7383L102.063 0.2471Z" fill="white"/>
<path d="M107.257 8.03611C105.723 14.2116 109.42 17.8999 116.632 17.8999C117.033 17.8999 122.332 17.889 122.713 17.8675L123.846 13.1637C123.67 13.1747 117.448 13.1803 117.261 13.1803C113.697 13.1803 112.827 11.1421 113.479 8.52141C114.059 6.20409 115.533 4.92504 118.541 4.92504H123.35L124.707 0.269748C124.327 0.246989 119.405 0.246989 119.001 0.246989H119C112.561 0.246989 108.61 2.57645 107.257 8.03611Z" fill="white"/>
</g>
</g>
</svg>
